<svg width="18" height="18" viewBox="0 0 18 18" fill="none" xmlns="http://www.w3.org/2000/svg">
<g clip-path="url(#clip0_1_13)">
<path d="M9.03857 0.128571C6.67549 0.128571 4.4092 1.0673 2.73825 2.73825C1.0673 4.4092 0.128571 6.67549 0.128571 9.03857C0.128571 11.4017 1.0673 13.6679 2.73825 15.3389C4.4092 17.0098 6.67549 17.9486 9.03857 17.9486C11.4017 17.9486 13.6679 17.0098 15.3389 15.3389C17.0098 13.6679 17.9486 11.4017 17.9486 9.03857C17.9486 6.67549 17.0098 4.4092 15.3389 2.73825C13.6679 1.0673 11.4017 0.128571 9.03857 0.128571ZM16.4636 6.54377C16.3294 6.9828 16.1064 7.38954 15.8084 7.73869C15.5103 8.08783 15.1436 8.37192 14.7311 8.57327C14.5113 7.74811 14.1052 6.98435 13.5439 6.34075C12.9827 5.69714 12.2813 5.19083 11.4938 4.86077C11.6219 4.4215 11.8983 4.04019 12.2759 3.78167C11.8502 3.50447 11.2859 3.36587 10.9493 3.85097C10.4246 4.53407 10.9493 5.44487 11.1572 5.83097V5.96957C10.6075 5.63616 10.1777 5.13705 9.92957 4.54397C8.97298 4.51325 8.02676 4.7498 7.19717 5.22707C7.11105 4.66812 7.16549 4.09652 7.35557 3.56387C7.71307 3.598 8.07347 3.5436 8.40497 3.40547C8.73647 3.26735 9.02887 3.04974 9.25637 2.77187C9.71177 2.25707 9.12767 1.60367 8.67227 1.20767H9.02867C10.3764 1.19858 11.7035 1.53972 12.8798 2.19767C13.5446 2.68906 14.0914 3.32268 14.4802 4.05231C14.869 4.78193 15.09 5.58915 15.1271 6.41507C15.3647 6.41507 15.8201 5.87057 16.028 5.50427C16.1983 5.83988 16.3438 6.18737 16.4636 6.54377ZM9.03857 16.8002C7.00907 14.741 9.28607 13.0877 8.04857 11.6126C7.13777 10.7711 5.78147 11.3552 4.96967 10.3949C4.83263 9.67896 4.89187 8.93931 5.14111 8.25434C5.39035 7.56937 5.8203 6.96461 6.38537 6.50417C6.90017 6.06857 10.3454 5.51417 11.7512 6.72197C12.5734 7.43016 13.1518 8.37921 13.4045 9.43457C13.8588 9.46889 14.3132 9.36906 14.7113 9.14747C15.1172 12.0977 11.5928 15.8201 9.03857 16.8002ZM5.22707 2.19767C5.60543 2.05342 6.02107 2.03934 6.40832 2.15767C6.79557 2.27599 7.13236 2.51998 7.36547 2.85107C6.94967 3.22727 6.43487 3.47477 5.88047 3.56387C5.90094 3.27236 5.96433 2.98547 6.06857 2.71247L5.22707 2.19767Z" fill="url(#paint0_linear_1_13)"/>
</g>
<defs>
<linearGradient id="paint0_linear_1_13" x1="3.02432" y1="3.24708" x2="17.7258" y2="17.7258" gradientUnits="userSpaceOnUse">
<stop stop-color="#F9DD61"/>
<stop offset="1" stop-color="#F2B25A"/>
</linearGradient>
<clipPath id="clip0_1_13">
<rect width="18" height="18" fill="white"/>
</clipPath>
</defs>
</svg>