<svg width="16" height="16" viewBox="0 0 16 16" fill="none" xmlns="http://www.w3.org/2000/svg">
<g clip-path="url(#clip0_13_6)">
<path fill-rule="evenodd" clip-rule="evenodd" d="M8 0C10.0682 0 12.1796 0.0646122 13.6799 0.123853C14.8763 0.1711 15.8281 1.12369 15.8751 2.3201C15.9346 3.83347 16 5.96032 16 8C16 10.0451 15.9343 12.1778 15.8747 13.6919C15.8278 14.8833 14.8825 15.8328 13.6912 15.8807C12.2527 15.9387 10.2082 16 8 16C5.79074 16 3.74522 15.9385 2.30662 15.8806C1.11623 15.8326 0.171524 14.8844 0.124427 13.694C0.065035 12.1928 0 10.0747 0 8C0 5.93079 0.0647325 3.81842 0.123997 2.31795C0.171225 1.12246 1.12246 0.171225 2.31795 0.123997C3.81842 0.0647325 5.93079 0 8 0ZM9.72391 7.33644C9.57955 7.29009 9.42615 7.36914 9.37629 7.51032L8.90338 8.8502C8.85128 8.99804 8.93193 9.15832 9.07913 9.21746C9.10284 9.22698 9.12625 9.2366 9.14908 9.24627C9.42043 9.35978 9.6256 9.49746 9.76476 9.65912C9.90741 9.8208 9.97878 10.0204 9.97878 10.2577C9.97876 10.5122 9.90052 10.7376 9.74398 10.9336C9.5874 11.1297 9.36642 11.2828 9.08113 11.3929C8.79932 11.503 8.46699 11.558 8.08429 11.5581C7.6946 11.5581 7.34479 11.4995 7.03512 11.3826C6.72897 11.2622 6.48357 11.0851 6.29917 10.8512C6.29769 10.8493 6.29619 10.8471 6.29472 10.8452L6.67818 10.6274C6.8287 10.5419 6.91197 10.3753 6.88933 10.2057C6.86663 10.036 6.74234 9.89637 6.5744 9.85206L4.42101 9.28412C4.3109 9.25508 4.19349 9.27031 4.09475 9.3264C3.99606 9.38251 3.92402 9.47494 3.8945 9.58329L3.31737 11.7031C3.27243 11.8684 3.33298 12.0443 3.4709 12.1485C3.60884 12.2527 3.79712 12.2647 3.94768 12.1792L4.39579 11.9243C4.7515 12.4139 5.23808 12.7856 5.8555 13.0391C6.49572 13.3006 7.24734 13.4312 8.11023 13.4312C8.98011 13.4312 9.72314 13.3021 10.339 13.0442C10.9583 12.7827 11.4317 12.4164 11.7587 11.9451C12.0893 11.4704 12.2562 10.9096 12.2597 10.2629C12.2563 9.82259 12.1745 9.43202 12.0145 9.09146C11.8579 8.7509 11.6369 8.45496 11.3516 8.20384C11.0663 7.95273 10.7287 7.74124 10.339 7.56924C10.1436 7.483 9.93854 7.40538 9.72391 7.33644ZM8.13647 2.56881C7.35707 2.56881 6.66113 2.70302 6.04874 2.97133C5.43637 3.23965 4.95436 3.61288 4.60292 4.09103C4.25498 4.5692 4.08268 5.12835 4.08615 5.76821C4.08268 6.5491 4.34203 7.17005 4.86396 7.63102C5.26734 7.98727 5.78395 8.27071 6.41385 8.48108C6.552 8.52719 6.70109 8.45724 6.75788 8.32497L7.32382 7.00702C7.38604 6.86209 7.31477 6.69698 7.16958 6.63116C7.1489 6.62179 7.13117 6.61322 7.11826 6.60651C7.03878 6.56682 6.96401 6.52483 6.89421 6.48036C6.73764 6.37716 6.61412 6.25485 6.52365 6.11382C6.43671 5.97281 6.39672 5.80769 6.40367 5.61855C6.40368 5.39152 6.46985 5.18848 6.60206 5.0096C6.73777 4.83075 6.93266 4.69135 7.18664 4.5916C7.44062 4.48843 7.75209 4.43693 8.12084 4.43693C8.66358 4.43694 9.09336 4.55209 9.40998 4.78254C9.52999 4.86991 9.63034 4.97067 9.71087 5.08472L9.32182 5.30591C9.1713 5.3915 9.088 5.55799 9.11066 5.72764C9.1334 5.89727 9.2577 6.03683 9.4256 6.08114L11.579 6.64908C11.6891 6.67811 11.8065 6.66289 11.9052 6.60679C12.004 6.55068 12.076 6.45828 12.1055 6.34991L12.6826 4.23007C12.7276 4.06478 12.667 3.88904 12.5291 3.78483C12.3912 3.68067 12.2029 3.66861 12.0523 3.75416L11.5608 4.0334C11.2334 3.58294 10.7845 3.22872 10.2137 2.97133C9.62223 2.70302 8.92976 2.56881 8.13647 2.56881Z" fill="currentColor"/>
</g>
<defs>
<clipPath id="clip0_13_6">
<rect width="16" height="16" fill="currentColor"/>
</clipPath>
</defs>
</svg>
