<svg width="24" height="24" viewBox="0 0 24 24" fill="none" xmlns="http://www.w3.org/2000/svg">
<path d="M13.8782 17.8558C14.0613 18.0388 14.0613 18.3356 13.8782 18.5187L12.1331 20.2638C9.81819 22.5787 6.05142 22.5788 3.73627 20.2638C1.42128 17.9487 1.42128 14.1819 3.73627 11.8669L5.48138 10.1218C5.66443 9.93873 5.96122 9.93873 6.14431 10.1218L7.6911 11.6686C7.87414 11.8516 7.87414 12.1484 7.6911 12.3315L5.94599 14.0766C4.84943 15.1732 4.84943 16.9574 5.94599 18.054C7.04254 19.1506 8.82683 19.1506 9.92347 18.054L11.6685 16.309C11.8516 16.1259 12.1484 16.1259 12.3315 16.309L13.8782 17.8558ZM11.6685 7.69108C11.8516 7.87412 12.1484 7.87412 12.3315 7.69108L14.0765 5.946C15.1731 4.84932 16.9574 4.8494 18.054 5.946C19.1506 7.0426 19.1506 8.82686 18.054 9.92346L16.3089 11.6685C16.1259 11.8516 16.1259 12.1484 16.3089 12.3315L17.8557 13.8783C18.0387 14.0613 18.3355 14.0613 18.5186 13.8783L20.2637 12.1331C22.5788 9.8181 22.5788 6.05131 20.2637 3.73628C17.9487 1.42128 14.1819 1.42128 11.8669 3.73628L10.1218 5.48135C9.93874 5.6644 9.93874 5.9612 10.1218 6.14428L11.6685 7.69108ZM20.8415 21.7254L21.7253 20.8416C22.0915 20.4754 22.0915 19.8818 21.7253 19.5157L4.48431 2.2746C4.11818 1.90847 3.52459 1.90847 3.1585 2.2746L2.2746 3.1585C1.90847 3.52464 1.90847 4.11823 2.2746 4.48432L19.5156 21.7254C19.8818 22.0915 20.4754 22.0915 20.8415 21.7254Z" fill="#575756"/>
</svg>
