<svg width="128" height="128" viewBox="0 0 128 128" fill="none" xmlns="http://www.w3.org/2000/svg">
<path d="M10.3447 25.2912C10.6663 17.1468 17.1468 10.6663 25.2912 10.3447C35.5131 9.94093 49.9035 9.5 64 9.5C78.0897 9.5 92.4732 9.94051 102.694 10.3441C110.845 10.6659 117.329 17.1547 117.649 25.3053C118.055 35.6152 118.5 50.1045 118.5 64C118.5 77.9321 118.052 92.4611 117.646 102.776C117.326 110.892 110.888 117.361 102.772 117.687C92.9722 118.082 79.0433 118.5 64 118.5C48.9494 118.5 35.0144 118.082 25.2139 117.687C17.1043 117.36 10.6687 110.9 10.3479 102.79C9.94328 92.5636 9.5 78.134 9.5 64C9.5 49.9035 9.94093 35.5131 10.3447 25.2912Z" fill="url(#paint0_linear_11_176)"/>
<path d="M72.9043 60.4971C73.3318 59.2864 74.6501 58.6023 75.8975 59.0029C77.3754 59.4777 78.7888 60.0125 80.1367 60.6074C82.8326 61.7973 85.1767 63.2654 87.1631 65.0137L87.5322 65.3467C89.3504 67.0302 90.775 68.9912 91.8027 71.2266H91.8018C92.9265 73.6214 93.4954 76.3538 93.5195 79.4121V79.4189C93.4952 83.9128 92.3325 87.8337 90.0166 91.1602L90.0176 91.1611C87.7266 94.462 84.42 97.0128 80.1289 98.8242L80.1279 98.8252C76.1226 100.503 71.3624 101.385 65.8613 101.489L64.751 101.5C58.8232 101.5 53.6356 100.603 49.2012 98.792H49.2002C45.0688 97.0956 41.769 94.6262 39.3115 91.3857L36.6406 92.9053C35.4419 93.5863 33.9441 93.4902 32.8447 92.6602C31.7437 91.8285 31.2566 90.4212 31.6172 89.0957L35.5488 74.6553C35.7853 73.7871 36.3617 73.0488 37.1484 72.6016C37.935 72.1546 38.8688 72.0336 39.7451 72.2646L54.416 76.1338C55.7523 76.4864 56.7466 77.5998 56.9287 78.96C57.1102 80.3204 56.4422 81.6517 55.2422 82.334L53.1475 83.5234C54.2988 84.8386 55.7797 85.858 57.6035 86.5762C59.6476 87.3481 61.9693 87.7392 64.5742 87.7393C67.135 87.7392 69.3348 87.3715 71.1836 86.6494L71.1855 86.6484C73.0643 85.9236 74.4897 84.9266 75.4902 83.6738C76.4849 82.4282 76.9803 81.0032 76.9805 79.3809L76.9756 79.1006C76.9229 77.7181 76.4751 76.5719 75.6475 75.6338L75.6436 75.6289C74.7614 74.6043 73.4374 73.7052 71.6348 72.9512L71.6328 72.9502C71.4805 72.8857 71.3247 72.8216 71.166 72.7578C69.9384 72.2648 69.2299 70.9086 69.6826 69.625L72.9043 60.4971ZM64.9297 26.5C70.3892 26.5001 75.1793 27.4235 79.2861 29.2861C83.0917 31.0024 86.1296 33.3501 88.3916 36.3262L91.3594 34.6406C92.5581 33.9596 94.0559 34.0548 95.1553 34.8848V34.8857C96.2558 35.7173 96.7436 37.1235 96.3828 38.4492L92.4512 52.8896C92.2147 53.758 91.6384 54.4961 90.8516 54.9434C90.0649 55.3903 89.1311 55.5112 88.2549 55.2803L73.584 51.4111C72.248 51.0586 71.2536 49.946 71.0713 48.5859V48.585C70.8897 47.2244 71.558 45.8942 72.7578 45.2119L74.9092 43.9873C74.4582 43.4351 73.9272 42.9335 73.3115 42.4854C71.2675 40.9975 68.455 40.2267 64.8232 40.2266C62.3544 40.2266 60.3002 40.5714 58.6465 41.2432L58.6416 41.2461V41.2451C56.9809 41.8974 55.7349 42.7952 54.877 43.9238L54.8779 43.9248C54.0423 45.0554 53.6251 46.3343 53.625 47.7764V47.7939C53.5808 48.9952 53.8331 50.0175 54.3633 50.8809L54.5889 51.2109C55.1386 51.9701 55.8539 52.644 56.7422 53.2295H56.7412C57.0841 53.4477 57.4463 53.6576 57.8271 53.8594L58.2168 54.0596L58.2236 54.0635C58.3013 54.1039 58.414 54.1582 58.5498 54.2197C59.7651 54.7708 60.3939 56.1739 59.8535 57.4326L55.998 66.4111C55.5115 67.5442 54.231 68.1507 53.0361 67.752C48.6957 66.3024 45.1133 64.3418 42.3047 61.8613C38.6272 58.6133 36.8128 54.2384 36.8369 48.7939C36.8136 44.3395 38.0156 40.426 40.4531 37.0762L40.4541 37.0742C42.9067 33.7373 46.2649 31.1428 50.5068 29.2842C54.7515 27.4245 59.5624 26.5 64.9297 26.5Z" fill="white" stroke="#574BE1"/>
<defs>
<linearGradient id="paint0_linear_11_176" x1="28" y1="10" x2="83" y2="119" gradientUnits="userSpaceOnUse">
<stop stop-color="#8B8DFF"/>
<stop offset="0.283654" stop-color="#6155F5"/>
<stop offset="1" stop-color="#4B2FC9"/>
</linearGradient>
</defs>
</svg>
