<svg width="24" height="24" viewBox="0 0 24 24" fill="none" xmlns="http://www.w3.org/2000/svg">
<path d="M12 21C14.3869 21 16.6761 20.0518 18.364 18.364C20.0518 16.6761 21 14.3869 21 12C21 9.61305 20.0518 7.32387 18.364 5.63604C16.6761 3.94821 14.3869 3 12 3C9.61305 3 7.32387 3.94821 5.63604 5.63604C3.94821 7.32387 3 9.61305 3 12C3 14.3869 3.94821 16.6761 5.63604 18.364C7.32387 20.0518 9.61305 21 12 21V21ZM10.65 16.05C10.65 15.692 10.7922 15.3486 11.0454 15.0954C11.2986 14.8422 11.642 14.7 12 14.7C12.358 14.7 12.7014 14.8422 12.9546 15.0954C13.2078 15.3486 13.35 15.692 13.35 16.05C13.35 16.408 13.2078 16.7514 12.9546 17.0046C12.7014 17.2578 12.358 17.4 12 17.4C11.642 17.4 11.2986 17.2578 11.0454 17.0046C10.7922 16.7514 10.65 16.408 10.65 16.05ZM11.1144 7.338C11.152 7.13049 11.2612 6.94277 11.4231 6.80759C11.5849 6.6724 11.7891 6.59835 12 6.59835C12.2109 6.59835 12.4151 6.6724 12.5769 6.80759C12.7388 6.94277 12.848 7.13049 12.8856 7.338L12.9 7.5V12L12.8856 12.162C12.848 12.3695 12.7388 12.5572 12.5769 12.6924C12.4151 12.8276 12.2109 12.9016 12 12.9016C11.7891 12.9016 11.5849 12.8276 11.4231 12.6924C11.2612 12.5572 11.152 12.3695 11.1144 12.162L11.1 12V7.5L11.1144 7.338Z" fill="#EB5757"/>
</svg>
