<svg width="24" height="24" viewBox="0 0 24 24" fill="none" xmlns="http://www.w3.org/2000/svg">
<path d="M21 4.15431V12.8116C21 13.3166 20.7655 13.6713 20.2966 13.8758C20.1403 13.9359 19.99 13.9659 19.8457 13.9659C19.521 13.9659 19.2505 13.8517 19.0341 13.6232L16.4369 11.0261L6.80561 20.6573C6.57715 20.8858 6.30661 21 5.99399 21C5.68136 21 5.41082 20.8858 5.18237 20.6573L3.34269 18.8176C3.11423 18.5892 3 18.3186 3 18.006C3 17.6934 3.11423 17.4228 3.34269 17.1944L12.9739 7.56313L10.3768 4.96593C10.004 4.61723 9.91984 4.19639 10.1242 3.70341C10.3287 3.23447 10.6834 3 11.1884 3H19.8457C20.1583 3 20.4289 3.11423 20.6573 3.34269C20.8858 3.57114 21 3.84168 21 4.15431Z" fill="#9B51E0"/>
</svg>
