<?xml version="1.0" encoding="UTF-8"?>
<svg width="20px" height="20px" viewBox="0 0 20 20" version="1.1" xmlns="http://www.w3.org/2000/svg" xmlns:xlink="http://www.w3.org/1999/xlink">
    <!-- Generator: Sketch 54.1 (76490) - https://sketchapp.com -->
    <title>contentsync_favicon_yellow</title>
    <desc>Created with Sketch.</desc>
    <g id="contentsync_favicon_yellow" stroke="none" stroke-width="1" fill="none" fill-rule="evenodd">
        <path d="M17.870334,10.2044781 L20,12.149585 C19.3374312,13.5930287 18.1116925,14.5158631 17.3923242,14.8234745 L15.3194577,12.750608 L14.5716897,11.6905214 L15.3100042,13.7160419 L14.041666,14.9986192 C13.2465912,14.6720616 12.6549825,13.9290007 12.46097,13.4273767 L13.7435081,12.1448386 L14.1126261,11.685775 L5.48981689,15.296738 L0,9.80692106 C1.77000141,5.87410761 4.82724805,3.9479469 6.67770229,3.13392591 L12.1722655,8.62848917 L14.1173725,11.4113097 L12.2054116,6.10126622 L15.6034158,2.70326205 C18.3483439,3.96689313 19.4368302,6.3142642 19.7917484,7.07619287 L16.3416911,10.2375849 L14.5764361,11.4113097 L17.870334,10.2044781 Z" id="Fill-1" fill="#FFE200"></path>
    </g>
</svg>