<svg width="24" height="24" viewBox="0 0 24 24" fill="none" xmlns="http://www.w3.org/2000/svg">
<path d="M14.7583 9.24184C17.0922 11.5781 17.0601 15.3238 14.7724 17.6242C14.7681 17.6289 14.763 17.634 14.7583 17.6387L12.1333 20.2637C9.81807 22.5789 6.05131 22.5786 3.73643 20.2637C1.42119 17.9489 1.42119 14.1817 3.73643 11.8668L5.18588 10.4174C5.57026 10.033 6.23221 10.2885 6.25205 10.8317C6.27736 11.5239 6.40151 12.2195 6.63057 12.8911C6.70815 13.1185 6.65272 13.3701 6.48279 13.54L5.97158 14.0512C4.87682 15.146 4.84248 16.9285 5.92647 18.034C7.02115 19.1504 8.82045 19.157 9.92354 18.0539L12.5485 15.4293C13.6497 14.3281 13.6451 12.5482 12.5485 11.4516C12.404 11.3073 12.2583 11.1952 12.1446 11.1169C12.0641 11.0616 11.9977 10.9883 11.9506 10.9028C11.9034 10.8173 11.877 10.722 11.8732 10.6245C11.8578 10.2117 12.004 9.78633 12.3302 9.46016L13.1526 8.6377C13.3683 8.42204 13.7066 8.39555 13.9567 8.57009C14.2431 8.77007 14.5113 8.99485 14.7583 9.24184V9.24184ZM20.2636 3.73631C17.9487 1.42139 14.1819 1.42108 11.8667 3.73631L9.2417 6.3613C9.23701 6.36599 9.23194 6.37107 9.22764 6.37575C6.9399 8.67622 6.90783 12.4219 9.2417 14.7582C9.48869 15.0051 9.75692 15.2299 10.0433 15.4299C10.2934 15.6044 10.6317 15.5779 10.8474 15.3623L11.6698 14.5398C11.996 14.2136 12.1422 13.7883 12.1267 13.3755C12.123 13.278 12.0965 13.1826 12.0494 13.0971C12.0023 13.0116 11.9358 12.9383 11.8554 12.8831C11.7416 12.8048 11.596 12.6927 11.4514 12.5484C10.3548 11.4518 10.3502 9.67184 11.4514 8.57063L14.0764 5.94603C15.1795 4.84294 16.9788 4.84958 18.0735 5.96595C19.1575 7.07142 19.1232 8.85399 18.0284 9.94875L17.5172 10.46C17.3473 10.6299 17.2918 10.8814 17.3694 11.1089C17.5985 11.7805 17.7226 12.476 17.7479 13.1683C17.7678 13.7115 18.4297 13.9669 18.8141 13.5826L20.2635 12.1331C22.5788 9.81832 22.5788 6.05114 20.2636 3.73631V3.73631Z" fill="#27AE60"/>
</svg>
