<?xml version="1.0" encoding="utf-8"?>
<!-- Generator: Adobe Illustrator 23.0.6, SVG Export Plug-In . SVG Version: 6.00 Build 0)  -->
<svg version="1.1" id="Ebene_1" xmlns="http://www.w3.org/2000/svg" xmlns:xlink="http://www.w3.org/1999/xlink" x="0px" y="0px"
	 viewBox="0 0 24 24" style="enable-background:new 0 0 24 24;" xml:space="preserve">
<style type="text/css">
	.st0{fill:#2F80ED;}
</style>
<path class="st0" d="M12,3C9.6,3,7.3,3.9,5.6,5.6C3.9,7.3,3,9.6,3,12c0,2.4,0.9,4.7,2.6,6.4c1.7,1.7,4,2.6,6.4,2.6
	c2.4,0,4.7-0.9,6.4-2.6s2.6-4,2.6-6.4c0-2.4-0.9-4.7-2.6-6.4C16.7,3.9,14.4,3,12,3L12,3z M13.4,8c0,0.4-0.1,0.7-0.4,1
	c-0.3,0.3-0.6,0.4-1,0.4s-0.7-0.1-1-0.4c-0.3-0.3-0.4-0.6-0.4-1c0-0.4,0.1-0.7,0.4-1c0.3-0.3,0.6-0.4,1-0.4s0.7,0.1,1,0.4
	C13.2,7.2,13.4,7.6,13.4,8z M12.9,16.7c0,0.2-0.1,0.4-0.3,0.5c-0.2,0.1-0.4,0.2-0.6,0.2s-0.4-0.1-0.6-0.2c-0.2-0.1-0.3-0.3-0.3-0.5
	l0-0.2V12l0-0.2c0-0.2,0.1-0.4,0.3-0.5c0.2-0.1,0.4-0.2,0.6-0.2s0.4,0.1,0.6,0.2c0.2,0.1,0.3,0.3,0.3,0.5l0,0.2v4.5L12.9,16.7z"/>
</svg>
