<svg width="20" height="20" viewBox="0 0 20 20" fill="none" xmlns="http://www.w3.org/2000/svg">
<path fill-rule="evenodd" clip-rule="evenodd" d="M17.8703 10.2045L20 12.1496C19.3374 13.593 18.1117 14.5158 17.3923 14.8235L15.3195 12.7506L14.5717 11.6905L15.31 13.716L14.0417 14.9986C13.2466 14.672 12.655 13.929 12.461 13.4274L13.7435 12.1448L14.1126 11.6858L5.48982 15.2967L0 9.80691C1.77 5.87409 4.82725 3.94793 6.6777 3.13391L12.1723 8.62847L14.1174 11.4113L12.2054 6.10125L15.6034 2.70325C18.3483 3.96688 19.4368 6.31425 19.7917 7.07618L16.3417 10.2376L14.5764 11.4113L17.8703 10.2045Z" fill="#FFFFFF"/>
</svg>
