<svg width="24" height="24" viewBox="0 0 24 24" fill="none" xmlns="http://www.w3.org/2000/svg">
<g clip-path="url(#clip0_1_143)">
<path d="M11.9536 0C5.36254 0 0 5.36215 0 11.9532C0 18.545 5.36254 23.9069 11.9536 23.9069C18.5444 23.9069 23.9077 18.545 23.9077 11.9532C23.9075 5.36215 18.5444 0 11.9536 0ZM11.9536 23.359C5.66478 23.359 0.548098 18.2423 0.548098 11.9532C0.548098 5.66439 5.66459 0.548098 11.9536 0.548098C18.2421 0.548098 23.3584 5.66439 23.3584 11.9532C23.3584 18.2423 18.2421 23.359 11.9536 23.359Z" fill="black"/>
<path fill-rule="evenodd" clip-rule="evenodd" d="M11.9024 1.56097C17.6139 1.56097 22.2439 6.191 22.2439 11.9024C22.2439 17.6139 17.6139 22.2439 11.9024 22.2439C6.191 22.2439 1.56097 17.6139 1.56097 11.9024C1.56097 6.191 6.191 1.56097 11.9024 1.56097ZM14.3035 11.0821C14.107 11.018 13.8981 11.1273 13.8302 11.3226L13.1864 13.1759C13.1154 13.3804 13.2252 13.6021 13.4257 13.6839C13.458 13.6971 13.4897 13.7103 13.5208 13.7237C13.8903 13.8807 14.1697 14.0712 14.3592 14.2948C14.5534 14.5184 14.6505 14.7944 14.6505 15.1227C14.6505 15.4748 14.544 15.7865 14.3308 16.0577C14.1176 16.3289 13.8168 16.5408 13.4284 16.693C13.0446 16.8453 12.5921 16.9213 12.0711 16.9213C11.5405 16.9213 11.0643 16.8405 10.6427 16.6787C10.2258 16.5122 9.89171 16.2671 9.64062 15.9436C9.63862 15.9409 9.63671 15.9381 9.63472 15.9354L10.1566 15.6341C10.3616 15.5158 10.475 15.2855 10.4442 15.0509C10.4133 14.8162 10.2441 14.623 10.0154 14.5617L7.08346 13.7761C6.93352 13.7359 6.77372 13.757 6.63929 13.8346C6.50491 13.9122 6.40681 14.0401 6.36661 14.19L5.58098 17.1219C5.51975 17.3506 5.60221 17.5939 5.79001 17.738C5.97782 17.882 6.23403 17.8988 6.43902 17.7805L7.04916 17.428C7.53346 18.1052 8.19595 18.6192 9.03658 18.9699C9.90827 19.3315 10.9316 19.5122 12.1065 19.5122C13.2909 19.5122 14.3025 19.3338 15.141 18.9769C15.9842 18.6153 16.6286 18.1086 17.0739 17.4567C17.524 16.8001 17.7513 16.0244 17.7561 15.13C17.7514 14.5209 17.64 13.9808 17.4221 13.5097C17.2089 13.0387 16.9081 12.6294 16.5196 12.282C16.1312 11.9347 15.6716 11.6421 15.141 11.4042C14.875 11.2849 14.5958 11.1775 14.3035 11.0821ZM12.1421 4.4878C11.081 4.48781 10.1335 4.67347 9.29973 5.04459C8.46594 5.41573 7.80966 5.93198 7.33117 6.59337C6.85744 7.25477 6.62293 8.02808 6.62767 8.91311C6.62294 9.99321 6.97593 10.8521 7.68655 11.4897C8.23576 11.9825 8.93923 12.3744 9.79687 12.6654C9.98496 12.7292 10.1879 12.6324 10.2652 12.4495L11.0358 10.6265C11.1205 10.4261 11.0235 10.1977 10.8258 10.1067C10.7976 10.0937 10.7735 10.0819 10.7559 10.0726C10.6477 10.0177 10.5459 9.95957 10.4508 9.89805C10.2377 9.75532 10.0694 9.58627 9.94626 9.39119C9.82786 9.19612 9.77349 8.96765 9.78296 8.70598C9.78298 8.39196 9.87296 8.11117 10.053 7.86376C10.2377 7.61637 10.5031 7.4236 10.8489 7.28563C11.1947 7.14292 11.6187 7.07165 12.1208 7.07164C12.8598 7.07165 13.445 7.23094 13.8761 7.54973C14.0395 7.67058 14.176 7.81004 14.2856 7.9678L13.7561 8.27363C13.5511 8.39201 13.4377 8.62222 13.4686 8.8569C13.4995 9.09156 13.6687 9.28456 13.8973 9.34584L16.8293 10.1315C16.9792 10.1716 17.139 10.1506 17.2734 10.073C17.4078 9.99536 17.5059 9.86753 17.5461 9.7176L18.3317 6.78563C18.393 6.55698 18.3105 6.31391 18.1227 6.16978C17.9349 6.02571 17.6787 6.00895 17.4737 6.12728L16.8043 6.51353C16.3585 5.89046 15.7475 5.4006 14.9705 5.04459C14.1651 4.67345 13.2223 4.48781 12.1421 4.4878Z" fill="black"/>
</g>
<defs>
<clipPath id="clip0_1_143">
<rect width="24" height="24" fill="white"/>
</clipPath>
</defs>
</svg>
