<svg width="16" height="16" viewBox="0 0 16 16" fill="none" xmlns="http://www.w3.org/2000/svg">
<g clip-path="url(#clip0_2_148)">
<path d="M7.9998 0C3.58883 0 0 3.58868 0 7.9998C0 12.4114 3.58883 16 7.9998 16C12.4107 16 16 12.4114 16 7.9998C15.9999 3.58868 12.4107 0 7.9998 0ZM7.9998 15.6333C3.7911 15.6333 0.366809 12.2089 0.366809 7.9998C0.366809 3.79096 3.79097 0.366821 7.9998 0.366821C12.2084 0.366821 15.6324 3.79096 15.6324 7.9998C15.6324 12.2089 12.2084 15.6333 7.9998 15.6333Z" fill="white"/>
<path fill-rule="evenodd" clip-rule="evenodd" d="M7.96559 1.0447C11.7879 1.0447 14.8865 4.14341 14.8865 7.96585C14.8865 11.7883 11.7879 14.887 7.96559 14.887C4.14327 14.887 1.04467 11.7883 1.04467 7.96585C1.04467 4.14341 4.14327 1.0447 7.96559 1.0447ZM9.57251 7.41685C9.44096 7.37392 9.30117 7.44709 9.25574 7.57779L8.82484 8.81811C8.77732 8.955 8.85084 9.10336 8.98501 9.1581C9.00662 9.16692 9.02784 9.1758 9.04864 9.18475C9.29592 9.28984 9.48293 9.41729 9.60974 9.56695C9.73972 9.71662 9.80472 9.90134 9.80473 10.1211C9.80471 10.3567 9.7334 10.5653 9.59074 10.7468C9.44807 10.9283 9.24675 11.0701 8.98679 11.172C8.73 11.2739 8.42717 11.3248 8.07845 11.3248C7.72338 11.3248 7.4047 11.2707 7.12254 11.1624C6.84354 11.051 6.61993 10.887 6.45189 10.6704C6.45055 10.6687 6.44927 10.6668 6.44794 10.665L6.79723 10.4633C6.93439 10.3841 7.01028 10.23 6.98966 10.073C6.96898 9.91589 6.85576 9.78664 6.70273 9.74562L4.74054 9.21983C4.64019 9.19294 4.53325 9.20704 4.44328 9.25898C4.35335 9.31092 4.28769 9.3965 4.2608 9.49681L3.73502 11.4591C3.69404 11.6121 3.74922 11.7749 3.87491 11.8714C4.0006 11.9678 4.17207 11.979 4.30925 11.8998L4.71758 11.6639C5.0417 12.1171 5.48506 12.4612 6.04765 12.6958C6.63101 12.9379 7.31589 13.0588 8.10217 13.0588C8.89478 13.0588 9.57179 12.9394 10.133 12.7005C10.6973 12.4585 11.1285 12.1194 11.4266 11.6831C11.7277 11.2437 11.8799 10.7246 11.8831 10.1259C11.8799 9.71831 11.8054 9.3568 11.6595 9.04154C11.5169 8.72629 11.3156 8.45235 11.0556 8.21989C10.7956 7.98742 10.4881 7.79159 10.133 7.63237C9.95493 7.55253 9.76808 7.48067 9.57251 7.41685ZM8.12601 3.00352C7.41585 3.00352 6.78175 3.12778 6.22376 3.37615C5.66575 3.62454 5.22654 3.97005 4.90632 4.41269C4.58927 4.85534 4.43233 5.37289 4.4355 5.96521C4.43234 6.68808 4.66857 7.26291 5.14415 7.68963C5.5117 8.01942 5.98249 8.28173 6.55646 8.47647C6.68234 8.51915 6.81816 8.45442 6.86991 8.33198L7.38562 7.11193C7.44231 6.97777 7.37738 6.82496 7.24509 6.76404C7.22621 6.75535 7.21006 6.74743 7.19829 6.74121C7.12585 6.70447 7.05773 6.66557 6.99412 6.62439C6.85146 6.52886 6.73887 6.41573 6.65644 6.28517C6.5772 6.15462 6.54081 6.00171 6.54715 5.82658C6.54716 5.61642 6.60738 5.4285 6.72785 5.26291C6.8515 5.09735 7.0291 4.96834 7.26052 4.876C7.49194 4.78049 7.77571 4.73279 8.11173 4.73278C8.60631 4.73279 8.99796 4.8394 9.28647 5.05275C9.39583 5.13363 9.48715 5.22696 9.56052 5.33254L9.20613 5.53723C9.06897 5.61645 8.99305 5.77053 9.0137 5.92759C9.03441 6.08464 9.14762 6.2138 9.30063 6.25482L11.2628 6.78061C11.3632 6.80749 11.4701 6.7934 11.5601 6.74146C11.65 6.68951 11.7157 6.60397 11.7426 6.50363L12.2683 4.54137C12.3093 4.38834 12.2541 4.22566 12.1284 4.1292C12.0028 4.03278 11.8313 4.02157 11.6941 4.10076L11.2461 4.35926C10.9478 3.94227 10.5389 3.61442 10.0188 3.37615C9.47986 3.12776 8.84888 3.00352 8.12601 3.00352Z" fill="white"/>
</g>
<defs>
<clipPath id="clip0_2_148">
<rect width="16" height="16" fill="white"/>
</clipPath>
</defs>
</svg>
