<svg width="20" height="20" viewBox="0 0 20 20" fill="none" xmlns="http://www.w3.org/2000/svg">
<g clip-path="url(#clip0_2_148)">
<path d="M9.99975 0C4.48603 0 0 4.48585 0 9.99975C0 15.5143 4.48603 20 9.99975 20C15.5133 20 20 15.5143 20 9.99975C19.9998 4.48585 15.5133 0 9.99975 0ZM9.99975 19.5416C4.73887 19.5416 0.458511 15.2611 0.458511 9.99975C0.458511 4.7387 4.73871 0.458526 9.99975 0.458526C15.2605 0.458526 19.5405 4.7387 19.5405 9.99975C19.5405 15.2611 15.2605 19.5416 9.99975 19.5416Z" fill="white"/>
<path fill-rule="evenodd" clip-rule="evenodd" d="M9.95699 1.30588C14.7349 1.30588 18.6081 5.17926 18.6081 9.95731C18.6081 14.7354 14.7349 18.6088 9.95699 18.6088C5.17909 18.6088 1.30583 14.7354 1.30583 9.95731C1.30583 5.17926 5.17909 1.30588 9.95699 1.30588ZM11.9656 9.27106C11.8012 9.2174 11.6265 9.30886 11.5697 9.47223L11.0311 11.0226C10.9717 11.1937 11.0636 11.3792 11.2313 11.4476C11.2583 11.4586 11.2848 11.4697 11.3108 11.4809C11.6199 11.6123 11.8537 11.7716 12.0122 11.9587C12.1747 12.1458 12.2559 12.3767 12.2559 12.6513C12.2559 12.9459 12.1668 13.2067 11.9884 13.4335C11.8101 13.6604 11.5584 13.8376 11.2335 13.965C10.9125 14.0924 10.534 14.156 10.0981 14.156C9.65422 14.156 9.25587 14.0884 8.90317 13.9531C8.55443 13.8137 8.27491 13.6087 8.06487 13.3381C8.06319 13.3358 8.06159 13.3335 8.05993 13.3312L8.49653 13.0792C8.66799 12.9802 8.76285 12.7875 8.73707 12.5912C8.71122 12.3949 8.56971 12.2333 8.37841 12.182L5.92567 11.5248C5.80024 11.4912 5.66656 11.5088 5.5541 11.5737C5.44168 11.6386 5.35962 11.7456 5.32599 11.871L4.66877 14.3238C4.61755 14.5151 4.68653 14.7187 4.84364 14.8392C5.00075 14.9597 5.21508 14.9737 5.38657 14.8748L5.89698 14.5799C6.30212 15.1464 6.85633 15.5764 7.55956 15.8698C8.28877 16.1723 9.14487 16.3235 10.1277 16.3235C11.1185 16.3235 11.9647 16.1742 12.6662 15.8757C13.3716 15.5732 13.9107 15.1492 14.2832 14.6039C14.6597 14.0546 14.8499 13.4057 14.8539 12.6574C14.8499 12.1479 14.7567 11.696 14.5744 11.3019C14.3961 10.9079 14.1445 10.5654 13.8195 10.2749C13.4945 9.98428 13.1101 9.73949 12.6662 9.54046C12.4437 9.44067 12.2101 9.35084 11.9656 9.27106ZM10.1575 3.7544C9.26981 3.7544 8.47719 3.90972 7.77969 4.22019C7.08219 4.53068 6.53317 4.96256 6.1329 5.51586C5.73659 6.06918 5.54041 6.71611 5.54438 7.45651C5.54043 8.3601 5.83572 9.07863 6.43018 9.61203C6.88963 10.0243 7.47812 10.3522 8.19558 10.5956C8.35293 10.6489 8.5227 10.568 8.58739 10.415L9.23202 8.88991C9.30288 8.72221 9.22172 8.5312 9.05636 8.45504C9.03277 8.44418 9.01257 8.43428 8.99786 8.42651C8.90732 8.38058 8.82216 8.33196 8.74265 8.28049C8.56433 8.16108 8.42359 8.01966 8.32055 7.85646C8.2215 7.69327 8.17602 7.50214 8.18394 7.28323C8.18395 7.02053 8.25923 6.78562 8.40982 6.57864C8.56438 6.37168 8.78637 6.21042 9.07565 6.095C9.36493 5.97561 9.71964 5.91599 10.1397 5.91598C10.7579 5.91599 11.2475 6.04925 11.6081 6.31594C11.7448 6.41703 11.8589 6.5337 11.9506 6.66568L11.5077 6.92153C11.3362 7.02057 11.2413 7.21316 11.2671 7.40948C11.293 7.6058 11.4345 7.76725 11.6258 7.81852L14.0785 8.47577C14.204 8.50936 14.3376 8.49175 14.4501 8.42683C14.5625 8.36189 14.6446 8.25496 14.6782 8.12953L15.3354 5.67671C15.3867 5.48543 15.3176 5.28208 15.1606 5.1615C15.0034 5.04097 14.7891 5.02696 14.6176 5.12595L14.0576 5.44907C13.6847 4.92783 13.1736 4.51802 12.5235 4.22019C11.8498 3.9097 11.0611 3.7544 10.1575 3.7544Z" fill="white"/>
</g>
<defs>
<clipPath id="clip0_2_148">
<rect width="20" height="20" fill="white"/>
</clipPath>
</defs>
</svg>
