<svg width="16" height="16" viewBox="0 0 16 16" fill="none" xmlns="http://www.w3.org/2000/svg">
<g clip-path="url(#clip0_10_156)">
<path fill-rule="evenodd" clip-rule="evenodd" d="M8 0C12.4183 0 16 3.58172 16 8C16 12.4183 12.4183 16 8 16C3.58172 16 0 12.4183 0 8C0 3.58172 3.58172 0 8 0ZM9.85746 7.36542C9.70541 7.3158 9.54382 7.40037 9.4913 7.55144L8.99322 8.98511C8.93829 9.14333 9.02328 9.31482 9.17836 9.3781C9.20334 9.38829 9.22787 9.39855 9.25192 9.4089C9.53775 9.53037 9.75391 9.67769 9.9005 9.85068C10.0507 10.0237 10.1259 10.2372 10.1259 10.4912C10.1259 10.7635 10.0434 11.0047 9.87854 11.2145C9.71362 11.4243 9.48091 11.5881 9.18042 11.7059C8.88359 11.8237 8.53355 11.8825 8.13045 11.8825C7.72002 11.8825 7.35165 11.82 7.0255 11.6949C6.70301 11.566 6.44453 11.3765 6.25029 11.1262C6.24874 11.1241 6.24727 11.1219 6.24572 11.1198L6.64947 10.8868C6.80802 10.7952 6.89574 10.6171 6.8719 10.4356C6.848 10.254 6.71713 10.1046 6.54024 10.0572L4.27211 9.44944C4.15612 9.41836 4.0325 9.43466 3.92851 9.49469C3.82455 9.55473 3.74866 9.65365 3.71757 9.76961L3.10982 12.0377C3.06245 12.2146 3.12624 12.4028 3.27152 12.5143C3.4168 12.6257 3.61501 12.6387 3.77358 12.5472L4.24558 12.2745C4.62023 12.7984 5.13272 13.196 5.78302 13.4673C6.45734 13.747 7.249 13.8868 8.15787 13.8868C9.07406 13.8868 9.85663 13.7488 10.5053 13.4727C11.1576 13.193 11.6561 12.801 12.0006 12.2967C12.3487 11.7888 12.5246 11.1887 12.5283 10.4968C12.5246 10.0256 12.4385 9.60776 12.2699 9.24337C12.105 8.87897 11.8723 8.56233 11.5718 8.29363C11.2713 8.02493 10.9157 7.79858 10.5053 7.61453C10.2995 7.52226 10.0835 7.43919 9.85746 7.36542ZM8.18544 2.26415C7.36454 2.26416 6.63158 2.40778 5.98659 2.69487C5.34158 2.98198 4.83389 3.38134 4.46374 3.89298C4.09726 4.40463 3.91585 5.00285 3.91952 5.6875C3.91586 6.52305 4.18893 7.18748 4.73865 7.68072C5.16351 8.06192 5.70771 8.36511 6.37117 8.59021C6.51667 8.63955 6.67367 8.56473 6.73349 8.4232L7.3296 7.01297C7.39513 6.8579 7.32007 6.68127 7.16716 6.61085C7.14534 6.60081 7.12667 6.59165 7.11306 6.58446C7.02933 6.54199 6.95059 6.49703 6.87706 6.44944C6.71216 6.33902 6.58201 6.20824 6.48673 6.05734C6.39514 5.90643 6.35308 5.7297 6.36041 5.52727C6.36042 5.28435 6.43002 5.06713 6.56928 4.87574C6.71221 4.68436 6.91749 4.53524 7.18499 4.42851C7.4525 4.31811 7.78052 4.26298 8.16893 4.26297C8.74061 4.26298 9.19334 4.3862 9.52683 4.63281C9.65323 4.7263 9.75879 4.83418 9.8436 4.95622L9.43396 5.19281C9.27541 5.28438 9.18765 5.46248 9.21153 5.64402C9.23546 5.82555 9.36633 5.97485 9.54319 6.02226L11.8113 6.63001C11.9273 6.66108 12.0509 6.64479 12.1549 6.58476C12.2589 6.52471 12.3348 6.42583 12.3659 6.30985L12.9736 4.04172C13.021 3.86484 12.9572 3.6768 12.8119 3.5653C12.6666 3.45385 12.4684 3.44089 12.3098 3.53243L11.792 3.83122C11.4472 3.34923 10.9745 2.97027 10.3734 2.69487C9.75036 2.40776 9.021 2.26416 8.18544 2.26415Z" fill="white"/>
</g>
<defs>
<clipPath id="clip0_10_156">
<rect width="16" height="16" fill="white"/>
</clipPath>
</defs>
</svg>
