<svg width="16" height="16" viewBox="0 0 16 16" fill="none" xmlns="http://www.w3.org/2000/svg">
<path fill-rule="evenodd" clip-rule="evenodd" d="M10.5691 7.02252C10.354 6.95422 10.1253 7.07064 10.051 7.27861L9.34628 9.25223C9.26856 9.47004 9.38881 9.70612 9.60824 9.79322C9.64358 9.80725 9.67829 9.82139 9.71231 9.83563C10.1167 10.0028 10.4226 10.2057 10.63 10.4438C10.8426 10.6819 10.9489 10.9759 10.9489 11.3255C10.9489 11.7004 10.8322 12.0324 10.5989 12.3212C10.3656 12.61 10.0363 12.8356 9.61116 12.9978C9.19117 13.1599 8.69589 13.2409 8.12555 13.2409C7.54483 13.2409 7.02363 13.1548 6.56215 12.9826C6.10586 12.8052 5.74013 12.5442 5.46531 12.1997C5.46311 12.1968 5.46103 12.1938 5.45885 12.191L6.0301 11.8701C6.25444 11.7441 6.37856 11.4989 6.34483 11.249C6.311 10.999 6.12584 10.7934 5.87556 10.7281L2.66637 9.89144C2.50226 9.84866 2.32736 9.8711 2.18021 9.95374C2.03312 10.0364 1.92575 10.1726 1.88175 10.3322L1.02184 13.4545C0.954826 13.6981 1.04508 13.9571 1.25064 14.1106C1.4562 14.264 1.73664 14.2818 1.96101 14.1558L2.62883 13.7804C3.15892 14.5016 3.88405 15.0491 4.80416 15.4225C5.75826 15.8076 6.87839 16 8.16434 16C9.46067 16 10.5679 15.81 11.4857 15.43C12.4087 15.0449 13.114 14.5052 13.6014 13.8111C14.094 13.1118 14.3429 12.2858 14.3481 11.3332C14.3429 10.6846 14.221 10.1094 13.9825 9.60775C13.7491 9.10611 13.4199 8.67023 12.9947 8.30032C12.5695 7.93043 12.0665 7.61882 11.4857 7.36546C11.1945 7.23843 10.889 7.12408 10.5691 7.02252ZM8.20335 0C7.04187 5.96357e-06 6.00479 0.19772 5.09219 0.592938C4.17957 0.988181 3.46124 1.53795 2.93751 2.24229C2.41898 2.94663 2.1623 3.77016 2.16749 4.71266C2.16232 5.86291 2.54868 6.77757 3.32648 7.45658C3.92762 7.98134 4.6976 8.39873 5.63633 8.7086C5.84221 8.77652 6.06434 8.67352 6.14898 8.47869L6.99242 6.53734C7.08514 6.32386 6.97894 6.08071 6.76258 5.98377C6.73172 5.96994 6.70529 5.95734 6.68604 5.94744C6.56757 5.88898 6.45616 5.82708 6.35213 5.76157C6.11881 5.60956 5.93466 5.42953 5.79985 5.22179C5.67025 5.01405 5.61074 4.77075 5.62111 4.49209C5.62112 4.15768 5.71961 3.85865 5.91664 3.59517C6.11887 3.33172 6.40933 3.12644 6.78782 2.9795C7.16631 2.82753 7.63043 2.75163 8.17999 2.75162C8.98887 2.75163 9.62943 2.92127 10.1013 3.26076C10.2801 3.38945 10.4295 3.53796 10.5495 3.70597L9.96989 4.03165C9.74555 4.15772 9.62138 4.40289 9.65516 4.6528C9.68903 4.9027 9.8742 5.10823 10.1244 5.1735L13.3336 6.01015C13.4977 6.05291 13.6726 6.0305 13.8198 5.94785C13.9669 5.86519 14.0743 5.72906 14.1182 5.5694L14.9781 2.44704C15.0452 2.20354 14.9549 1.94469 14.7494 1.79119C14.5438 1.63777 14.2634 1.61993 14.039 1.74594L13.3063 2.15726C12.8184 1.49374 12.1496 0.972066 11.2991 0.592938C10.4176 0.1977 9.38559 8.76156e-06 8.20335 0Z" fill="white"/>
</svg>
