<svg width="18" height="18" viewBox="0 0 18 18" fill="none" xmlns="http://www.w3.org/2000/svg">
<g clip-path="url(#clip0_5_2)">
<mask id="mask0_5_2" style="mask-type:luminance" maskUnits="userSpaceOnUse" x="0" y="0" width="18" height="18">
<path d="M18 0H0V18H18V0Z" fill="white"/>
</mask>
<g mask="url(#mask0_5_2)">
<path d="M9.03854 0.128601C6.67546 0.128601 4.40917 1.06733 2.73822 2.73828C1.06727 4.40923 0.12854 6.67552 0.12854 9.0386C0.12854 11.4017 1.06727 13.6679 2.73822 15.3389C4.40917 17.0098 6.67546 17.9486 9.03854 17.9486C11.4017 17.9486 13.6679 17.0098 15.3389 15.3389C17.0098 13.6679 17.9486 11.4017 17.9486 9.0386C17.9486 6.67552 17.0098 4.40923 15.3389 2.73828C13.6679 1.06733 11.4017 0.128601 9.03854 0.128601ZM16.4636 6.5438C16.3294 6.98283 16.1064 7.38957 15.8084 7.73872C15.5103 8.08786 15.1436 8.37195 14.7311 8.5733C14.5113 7.74814 14.1052 6.98438 13.5439 6.34078C12.9827 5.69717 12.2813 5.19086 11.4938 4.8608C11.6219 4.42153 11.8983 4.04022 12.2759 3.7817C11.8502 3.5045 11.2859 3.3659 10.9493 3.851C10.4246 4.5341 10.9493 5.4449 11.1572 5.831V5.9696C10.6075 5.63619 10.1777 5.13708 9.92954 4.544C8.97295 4.51328 8.02673 4.74983 7.19714 5.2271C7.11102 4.66815 7.16546 4.09655 7.35554 3.5639C7.71304 3.59803 8.07344 3.54363 8.40494 3.4055C8.73644 3.26738 9.02884 3.04977 9.25634 2.7719C9.71174 2.2571 9.12764 1.6037 8.67224 1.2077H9.02864C10.3764 1.19861 11.7035 1.53975 12.8798 2.1977C13.5446 2.68909 14.0914 3.32271 14.4802 4.05234C14.869 4.78196 15.09 5.58918 15.1271 6.4151C15.3647 6.4151 15.8201 5.8706 16.028 5.5043C16.1983 5.83991 16.3438 6.1874 16.4636 6.5438ZM9.03854 16.8002C7.00904 14.741 9.28604 13.0877 8.04854 11.6126C7.13774 10.7711 5.78144 11.3552 4.96964 10.3949C4.8326 9.67899 4.89184 8.93934 5.14108 8.25437C5.39032 7.5694 5.82027 6.96464 6.38534 6.5042C6.90014 6.0686 10.3454 5.5142 11.7512 6.722C12.5734 7.43019 13.1518 8.37924 13.4045 9.4346C13.8588 9.46892 14.3132 9.36909 14.7113 9.1475C15.1172 12.0977 11.5928 15.8201 9.03854 16.8002ZM5.22704 2.1977C5.6054 2.05345 6.02104 2.03937 6.40829 2.1577C6.79554 2.27602 7.13233 2.52001 7.36544 2.8511C6.94964 3.2273 6.43484 3.4748 5.88044 3.5639C5.90091 3.27239 5.9643 2.9855 6.06854 2.7125L5.22704 2.1977Z" fill="white"/>
</g>
</g>
<defs>
<clipPath id="clip0_5_2">
<rect width="18" height="18" fill="white"/>
</clipPath>
</defs>
</svg>
